<?xml version="1.0" standalone="no"?>
<!DOCTYPE svg PUBLIC "-//W3C//DTD SVG 20010904//EN"
 "http://www.w3.org/TR/2001/REC-SVG-20010904/DTD/svg10.dtd">
<svg version="1.0" xmlns="http://www.w3.org/2000/svg"
 width="200.000000pt" height="200.000000pt" viewBox="0 0 200.000000 200.000000"
 preserveAspectRatio="xMidYMid meet">

<g transform="translate(0.000000,200.000000) scale(0.100000,-0.100000)"
fill="#000000" stroke="none">
<path d="M903 1894 c-7 -3 -13 -16 -13 -28 0 -18 -10 -24 -69 -39 -145 -38
-329 -185 -390 -312 -31 -67 -61 -157 -61 -186 0 -10 -11 -29 -23 -41 -23 -23
-24 -32 -30 -228 -4 -113 -7 -254 -7 -315 l0 -110 46 -58 c26 -32 158 -151
296 -268 l250 -209 94 0 94 0 187 157 c271 226 315 266 363 328 l43 56 -7 312
-7 312 -24 20 c-17 14 -25 31 -25 51 0 37 -28 121 -64 192 -33 65 -153 185
-231 232 -33 19 -95 47 -139 61 -66 22 -82 31 -86 50 -6 23 -10 24 -95 26 -50
1 -96 -1 -102 -3z m167 -150 l0 -116 -35 22 -35 22 -35 -22 -35 -22 0 116 0
116 70 0 70 0 0 -116z m-176 -5 c3 -34 6 -151 6 -260 0 -191 -1 -199 -20 -199
-10 0 -37 17 -58 38 -65 61 -86 168 -61 308 18 106 37 152 67 163 54 19 59 16
66 -50z m267 49 c35 -10 40 -16 54 -63 58 -199 35 -369 -57 -425 -18 -11 -42
-20 -52 -20 -18 0 -19 7 -13 143 4 78 7 195 7 260 0 127 -2 124 61 105z m-386
-35 c-23 -55 -35 -130 -36 -225 -1 -94 2 -114 24 -161 25 -55 66 -93 115 -106
l27 -7 3 -127 c1 -70 -1 -127 -6 -127 -5 0 -95 36 -200 80 -105 44 -196 80
-201 80 -16 0 -1 -71 27 -130 49 -101 153 -184 291 -230 l64 -21 23 28 c12 15
25 25 28 22 3 -3 -10 -24 -29 -46 -34 -40 -35 -43 -35 -130 0 -82 -2 -91 -25
-113 -19 -17 -26 -20 -29 -9 -2 8 -9 28 -14 46 -8 25 -132 177 -285 350 -14
16 -25 62 -43 184 -14 89 -22 164 -19 167 3 3 5 0 5 -6 0 -7 8 -12 19 -12 15
0 19 10 24 68 3 37 15 93 27 124 21 58 20 78 -4 78 -15 0 -66 -145 -66 -188 0
-41 -11 -46 -30 -16 -45 67 49 245 185 352 99 77 176 113 160 75z m535 -26
c122 -71 224 -200 259 -328 12 -42 11 -49 -8 -80 l-21 -34 0 32 c0 48 -20 133
-43 181 -18 39 -21 42 -35 28 -14 -13 -13 -22 6 -78 11 -35 24 -92 28 -126 4
-43 11 -62 21 -62 24 0 24 -21 -1 -167 l-24 -143 -123 -146 c-171 -201 -170
-201 -183 -244 l-12 -40 -27 26 c-25 23 -27 30 -27 111 0 85 0 85 -40 134 -35
41 -47 48 -83 52 l-42 4 42 1 c36 2 49 -4 81 -32 l38 -35 67 24 c37 12 88 35
113 50 56 33 159 132 167 160 3 11 15 45 26 75 12 30 21 58 21 62 0 18 -41 4
-218 -72 -103 -44 -190 -80 -194 -80 -4 0 -8 58 -8 129 l0 129 31 6 c49 9 86
42 115 102 23 47 28 70 28 138 1 85 -21 233 -35 242 -5 3 -9 10 -9 16 0 13 22
5 90 -35z m-275 -109 c34 -23 35 -24 35 -90 0 -38 -3 -68 -6 -68 -3 0 -18 9
-33 19 -27 20 -28 20 -60 0 -18 -11 -35 -18 -38 -15 -3 2 -7 31 -10 63 -5 57
-4 60 27 86 38 33 41 33 85 5z m-658 -545 c-2 -37 -3 -9 -3 62 0 72 1 102 3
68 2 -34 2 -93 0 -130z m1240 -5 c-2 -35 -3 -7 -3 62 0 69 1 97 3 63 2 -35 2
-91 0 -125z m-213 -5 c-6 -28 -53 -108 -59 -101 -4 4 21 104 30 118 3 6 13 10
21 10 11 0 13 -7 8 -27z m-760 -4 c15 -7 28 -23 31 -41 4 -16 22 -51 41 -79
31 -46 32 -50 11 -43 -59 18 -126 101 -127 157 0 20 10 21 44 6z m-259 -109
c3 -5 -3 -10 -14 -10 -12 0 -21 5 -21 10 0 6 6 10 14 10 8 0 18 -4 21 -10z
m1255 6 c0 -11 -19 -15 -25 -6 -3 5 1 10 9 10 9 0 16 -2 16 -4z m-1200 -26
c12 -7 8 -10 -15 -10 -16 0 -41 -3 -55 -6 -17 -5 -22 -3 -15 4 6 6 21 12 35
15 14 2 27 5 30 5 3 1 12 -3 20 -8z m1187 -5 c21 -7 9 -78 -22 -127 -28 -44
-55 -62 -55 -37 0 5 -4 8 -9 4 -14 -8 -61 16 -54 28 4 6 0 8 -10 4 -14 -5 -15
-2 -7 19 19 48 55 103 75 113 18 8 45 7 82 -4z m-1167 -25 c-8 -5 -24 -10 -35
-10 -11 0 -32 -7 -47 -14 -23 -12 -28 -12 -28 -1 0 13 55 32 100 34 20 1 22
-1 10 -9z m45 -42 c14 -22 14 -23 -7 -29 -13 -3 -41 -15 -64 -27 l-41 -21 -17
30 -17 29 43 20 c56 26 83 25 103 -2z m1072 -170 c-2 -13 -4 -5 -4 17 -1 22 1
32 4 23 2 -10 2 -28 0 -40z m-681 -314 c9 -82 21 -154 26 -160 12 -16 83 -24
122 -13 37 10 33 -8 57 217 10 91 15 110 25 100 10 -10 9 -45 -7 -173 -11 -88
-21 -166 -24 -173 -3 -9 -30 -12 -102 -10 l-98 3 -19 167 c-16 146 -17 212 -1
196 3 -2 12 -72 21 -154z"/>
<path d="M660 1436 c-15 -19 -3 -121 16 -141 11 -10 20 -11 44 -2 33 13 36 23
15 51 -8 10 -17 38 -21 62 -7 47 -29 59 -54 30z"/>
<path d="M1296 1448 c-2 -7 -11 -35 -21 -63 -9 -27 -18 -57 -21 -67 -8 -22 52
-36 71 -17 11 12 19 77 16 126 -1 19 -40 37 -45 21z"/>
</g>
</svg>
